<svg width="30" height="29" viewBox="0 0 30 29" fill="none" xmlns="http://www.w3.org/2000/svg">
<g filter="url(#filter0_d_733_10916)">
<path d="M9 8.71429C9 9.77131 8.20536 10.5714 7.3 10.5714C6.39464 10.5714 5.6 9.77131 5.6 8.71429C5.6 7.65727 6.39464 6.85714 7.3 6.85714C8.20536 6.85714 9 7.65727 9 8.71429ZM24.4 8.71429C24.4 9.77131 23.6054 10.5714 22.7 10.5714C21.7946 10.5714 21 9.77131 21 8.71429C21 7.65727 21.7946 6.85714 22.7 6.85714C23.6054 6.85714 24.4 7.65726 24.4 8.71429ZM23.0581 16.4643C22.7755 15.0143 21.9956 13.7618 20.9045 12.9124C21.1182 12.8073 21.3536 12.75 21.6 12.75H23.8C24.7054 12.75 25.5 13.5501 25.5 14.6071V15.7857C25.5 16.1945 25.2004 16.4643 24.9 16.4643H23.0581ZM18.35 8.125C18.35 10.1617 16.8197 11.75 15 11.75C13.1803 11.75 11.65 10.1617 11.65 8.125C11.65 6.08829 13.1803 4.5 15 4.5C16.8197 4.5 18.35 6.08829 18.35 8.125ZM15 14.5179C15.8906 14.5179 16.7244 14.2958 17.4732 13.9286H17.64C19.5182 13.9286 21.1 15.5721 21.1 17.6714V18.7321C21.1 19.4651 20.5529 20 19.95 20H10.05C9.44714 20 8.9 19.4651 8.9 18.7321V17.6714C8.9 15.5721 10.4818 13.9286 12.36 13.9286H12.5272C13.278 14.2954 14.1087 14.5179 15 14.5179ZM8.4 12.75C8.64639 12.75 8.88183 12.8073 9.09554 12.9124C8.00419 13.762 7.2241 15.0145 6.93925 16.4643H5.1C4.79964 16.4643 4.5 16.1945 4.5 15.7857V14.6071C4.5 13.5501 5.29464 12.75 6.2 12.75H8.4Z" stroke="#215E97"/>
</g>
<defs>
<filter id="filter0_d_733_10916" x="-1" y="0" width="32" height="32" filterUnits="userSpaceOnUse" color-interpolation-filters="sRGB">
<feFlood flood-opacity="0" result="BackgroundImageFix"/>
<feColorMatrix in="SourceAlpha" type="matrix" values="0 0 0 0 0 0 0 0 0 0 0 0 0 0 0 0 0 0 127 0" result="hardAlpha"/>
<feOffset dy="4"/>
<feGaussianBlur stdDeviation="2"/>
<feComposite in2="hardAlpha" operator="out"/>
<feColorMatrix type="matrix" values="0 0 0 0 0 0 0 0 0 0 0 0 0 0 0 0 0 0 0.25 0"/>
<feBlend mode="normal" in2="BackgroundImageFix" result="effect1_dropShadow_733_10916"/>
<feBlend mode="normal" in="SourceGraphic" in2="effect1_dropShadow_733_10916" result="shape"/>
</filter>
</defs>
</svg>
