<svg width="22" height="17" viewBox="0 0 22 17" fill="none" xmlns="http://www.w3.org/2000/svg">
<path d="M5 4.71429C5 5.77131 4.20536 6.57143 3.3 6.57143C2.39464 6.57143 1.6 5.77131 1.6 4.71429C1.6 3.65727 2.39464 2.85714 3.3 2.85714C4.20536 2.85714 5 3.65727 5 4.71429ZM20.4 4.71429C20.4 5.77131 19.6054 6.57143 18.7 6.57143C17.7946 6.57143 17 5.77131 17 4.71429C17 3.65727 17.7946 2.85714 18.7 2.85714C19.6054 2.85714 20.4 3.65726 20.4 4.71429ZM19.0581 12.4643C18.7755 11.0143 17.9956 9.76184 16.9045 8.91239C17.1182 8.80728 17.3536 8.75 17.6 8.75H19.8C20.7054 8.75 21.5 9.55012 21.5 10.6071V11.7857C21.5 12.1945 21.2004 12.4643 20.9 12.4643H19.0581ZM14.35 4.125C14.35 6.16171 12.8197 7.75 11 7.75C9.18026 7.75 7.65 6.16171 7.65 4.125C7.65 2.08829 9.18026 0.5 11 0.5C12.8197 0.5 14.35 2.08829 14.35 4.125ZM11 10.5179C11.8906 10.5179 12.7244 10.2958 13.4732 9.92857H13.64C15.5182 9.92857 17.1 11.5721 17.1 13.6714V14.7321C17.1 15.4651 16.5529 16 15.95 16H6.05C5.44714 16 4.9 15.4651 4.9 14.7321V13.6714C4.9 11.5721 6.48182 9.92857 8.36 9.92857H8.5272C9.27803 10.2954 10.1087 10.5179 11 10.5179ZM4.4 8.75C4.64639 8.75 4.88183 8.80728 5.09554 8.91239C4.00419 9.76195 3.2241 11.0145 2.93925 12.4643H1.1C0.799636 12.4643 0.5 12.1945 0.5 11.7857V10.6071C0.5 9.55012 1.29464 8.75 2.2 8.75H4.4Z" stroke="#215E97"/>
</svg>
