<svg width="24" height="20" viewBox="0 0 24 20" fill="none" xmlns="http://www.w3.org/2000/svg">
<mask id="path-1-inside-1_698_10873" fill="white">
<path d="M23.1 7.5H18V0.9375C18 0.419531 17.5972 0 17.1 0H11.7C11.2028 0 10.8 0.419531 10.8 0.9375V3.75H8.4V0.625C8.4 0.279687 8.1315 0 7.8 0H7.2C6.8685 0 6.6 0.279687 6.6 0.625V3.75H4.2V0.625C4.2 0.279687 3.9315 0 3.6 0H3C2.6685 0 2.4 0.279687 2.4 0.625V3.75H0.9C0.40275 3.75 0 4.16953 0 4.6875V18.75C0 19.4402 0.537375 20 1.2 20H22.8C23.4626 20 24 19.4402 24 18.75V8.4375C24 7.91953 23.5969 7.5 23.1 7.5ZM4.8 15.7812C4.8 16.0402 4.59863 16.25 4.35 16.25H2.85C2.60138 16.25 2.4 16.0402 2.4 15.7812V14.2188C2.4 13.9598 2.60138 13.75 2.85 13.75H4.35C4.59863 13.75 4.8 13.9598 4.8 14.2188V15.7812ZM4.8 12.0312C4.8 12.2902 4.59863 12.5 4.35 12.5H2.85C2.60138 12.5 2.4 12.2902 2.4 12.0312V10.4688C2.4 10.2098 2.60138 10 2.85 10H4.35C4.59863 10 4.8 10.2098 4.8 10.4688V12.0312ZM4.8 8.28125C4.8 8.54023 4.59863 8.75 4.35 8.75H2.85C2.60138 8.75 2.4 8.54023 2.4 8.28125V6.71875C2.4 6.45977 2.60138 6.25 2.85 6.25H4.35C4.59863 6.25 4.8 6.45977 4.8 6.71875V8.28125ZM9.6 15.7812C9.6 16.0402 9.39863 16.25 9.15 16.25H7.65C7.40138 16.25 7.2 16.0402 7.2 15.7812V14.2188C7.2 13.9598 7.40138 13.75 7.65 13.75H9.15C9.39863 13.75 9.6 13.9598 9.6 14.2188V15.7812ZM9.6 12.0312C9.6 12.2902 9.39863 12.5 9.15 12.5H7.65C7.40138 12.5 7.2 12.2902 7.2 12.0312V10.4688C7.2 10.2098 7.40138 10 7.65 10H9.15C9.39863 10 9.6 10.2098 9.6 10.4688V12.0312ZM9.6 8.28125C9.6 8.54023 9.39863 8.75 9.15 8.75H7.65C7.40138 8.75 7.2 8.54023 7.2 8.28125V6.71875C7.2 6.45977 7.40138 6.25 7.65 6.25H9.15C9.39863 6.25 9.6 6.45977 9.6 6.71875V8.28125ZM15.6 12.0312C15.6 12.2902 15.3986 12.5 15.15 12.5H13.65C13.4014 12.5 13.2 12.2902 13.2 12.0312V10.4688C13.2 10.2098 13.4014 10 13.65 10H15.15C15.3986 10 15.6 10.2098 15.6 10.4688V12.0312ZM15.6 8.28125C15.6 8.54023 15.3986 8.75 15.15 8.75H13.65C13.4014 8.75 13.2 8.54023 13.2 8.28125V6.71875C13.2 6.45977 13.4014 6.25 13.65 6.25H15.15C15.3986 6.25 15.6 6.45977 15.6 6.71875V8.28125ZM15.6 4.53125C15.6 4.79023 15.3986 5 15.15 5H13.65C13.4014 5 13.2 4.79023 13.2 4.53125V2.96875C13.2 2.70977 13.4014 2.5 13.65 2.5H15.15C15.3986 2.5 15.6 2.70977 15.6 2.96875V4.53125ZM21.6 15.7812C21.6 16.0402 21.3986 16.25 21.15 16.25H19.65C19.4014 16.25 19.2 16.0402 19.2 15.7812V14.2188C19.2 13.9598 19.4014 13.75 19.65 13.75H21.15C21.3986 13.75 21.6 13.9598 21.6 14.2188V15.7812ZM21.6 12.0312C21.6 12.2902 21.3986 12.5 21.15 12.5H19.65C19.4014 12.5 19.2 12.2902 19.2 12.0312V10.4688C19.2 10.2098 19.4014 10 19.65 10H21.15C21.3986 10 21.6 10.2098 21.6 10.4688V12.0312Z"/>
</mask>
<path d="M23.1 7.5H18V0.9375C18 0.419531 17.5972 0 17.1 0H11.7C11.2028 0 10.8 0.419531 10.8 0.9375V3.75H8.4V0.625C8.4 0.279687 8.1315 0 7.8 0H7.2C6.8685 0 6.6 0.279687 6.6 0.625V3.75H4.2V0.625C4.2 0.279687 3.9315 0 3.6 0H3C2.6685 0 2.4 0.279687 2.4 0.625V3.75H0.9C0.40275 3.75 0 4.16953 0 4.6875V18.75C0 19.4402 0.537375 20 1.2 20H22.8C23.4626 20 24 19.4402 24 18.75V8.4375C24 7.91953 23.5969 7.5 23.1 7.5ZM4.8 15.7812C4.8 16.0402 4.59863 16.25 4.35 16.25H2.85C2.60138 16.25 2.4 16.0402 2.4 15.7812V14.2188C2.4 13.9598 2.60138 13.75 2.85 13.75H4.35C4.59863 13.75 4.8 13.9598 4.8 14.2188V15.7812ZM4.8 12.0312C4.8 12.2902 4.59863 12.5 4.35 12.5H2.85C2.60138 12.5 2.4 12.2902 2.4 12.0312V10.4688C2.4 10.2098 2.60138 10 2.85 10H4.35C4.59863 10 4.8 10.2098 4.8 10.4688V12.0312ZM4.8 8.28125C4.8 8.54023 4.59863 8.75 4.35 8.75H2.85C2.60138 8.75 2.4 8.54023 2.4 8.28125V6.71875C2.4 6.45977 2.60138 6.25 2.85 6.25H4.35C4.59863 6.25 4.8 6.45977 4.8 6.71875V8.28125ZM9.6 15.7812C9.6 16.0402 9.39863 16.25 9.15 16.25H7.65C7.40138 16.25 7.2 16.0402 7.2 15.7812V14.2188C7.2 13.9598 7.40138 13.75 7.65 13.75H9.15C9.39863 13.75 9.6 13.9598 9.6 14.2188V15.7812ZM9.6 12.0312C9.6 12.2902 9.39863 12.5 9.15 12.5H7.65C7.40138 12.5 7.2 12.2902 7.2 12.0312V10.4688C7.2 10.2098 7.40138 10 7.65 10H9.15C9.39863 10 9.6 10.2098 9.6 10.4688V12.0312ZM9.6 8.28125C9.6 8.54023 9.39863 8.75 9.15 8.75H7.65C7.40138 8.75 7.2 8.54023 7.2 8.28125V6.71875C7.2 6.45977 7.40138 6.25 7.65 6.25H9.15C9.39863 6.25 9.6 6.45977 9.6 6.71875V8.28125ZM15.6 12.0312C15.6 12.2902 15.3986 12.5 15.15 12.5H13.65C13.4014 12.5 13.2 12.2902 13.2 12.0312V10.4688C13.2 10.2098 13.4014 10 13.65 10H15.15C15.3986 10 15.6 10.2098 15.6 10.4688V12.0312ZM15.6 8.28125C15.6 8.54023 15.3986 8.75 15.15 8.75H13.65C13.4014 8.75 13.2 8.54023 13.2 8.28125V6.71875C13.2 6.45977 13.4014 6.25 13.65 6.25H15.15C15.3986 6.25 15.6 6.45977 15.6 6.71875V8.28125ZM15.6 4.53125C15.6 4.79023 15.3986 5 15.15 5H13.65C13.4014 5 13.2 4.79023 13.2 4.53125V2.96875C13.2 2.70977 13.4014 2.5 13.65 2.5H15.15C15.3986 2.5 15.6 2.70977 15.6 2.96875V4.53125ZM21.6 15.7812C21.6 16.0402 21.3986 16.25 21.15 16.25H19.65C19.4014 16.25 19.2 16.0402 19.2 15.7812V14.2188C19.2 13.9598 19.4014 13.75 19.65 13.75H21.15C21.3986 13.75 21.6 13.9598 21.6 14.2188V15.7812ZM21.6 12.0312C21.6 12.2902 21.3986 12.5 21.15 12.5H19.65C19.4014 12.5 19.2 12.2902 19.2 12.0312V10.4688C19.2 10.2098 19.4014 10 19.65 10H21.15C21.3986 10 21.6 10.2098 21.6 10.4688V12.0312Z" stroke="#215E97" stroke-width="2" mask="url(#path-1-inside-1_698_10873)"/>
</svg>
