<svg width="24" height="24" viewBox="0 0 24 24" fill="none" xmlns="http://www.w3.org/2000/svg">
<path d="M11.8952 14.7938L11.8952 14.7938C11.2429 13.9281 10.0696 12.308 9.06166 10.5829C8.55759 9.72021 8.10035 8.84048 7.7704 8.02218C7.43706 7.19549 7.25 6.47074 7.25 5.90625C7.25 2.86337 9.43029 0.5 12 0.5C14.5697 0.5 16.75 2.86337 16.75 5.90625C16.75 6.47074 16.5629 7.19549 16.2296 8.02218C15.8997 8.84048 15.4424 9.72021 14.9383 10.5829C13.9304 12.308 12.7571 13.9281 12.1048 14.7938L12.1046 14.7941C12.0613 14.8517 12.0207 14.8598 12.0002 14.8598C11.9796 14.8598 11.9388 14.8517 11.8952 14.7938ZM1.0435 10.5786L0.838333 10.1227L1.04351 10.5786L5.48276 8.58104C5.67211 9.10741 5.90271 9.6453 6.16667 10.1899V20.6943L0.70163 23.4927C0.668112 23.5055 0.635046 23.5023 0.595888 23.4724C0.549746 23.4373 0.5 23.3628 0.5 23.2491V11.5154C0.5 11.5154 0.5 11.5153 0.5 11.5153C0.50006 11.3031 0.556866 11.0999 0.657753 10.9323C0.758435 10.765 0.89534 10.6453 1.0435 10.5786ZM22.9566 20.9213L22.9565 20.9214L17.8333 23.2267V10.8057L23.2984 8.00728C23.3319 7.9945 23.365 7.99772 23.4041 8.02756C23.4503 8.06271 23.5 8.13717 23.5 8.25094V19.9847C23.5 20.1969 23.4432 20.4002 23.3423 20.5678C23.2416 20.735 23.1047 20.8547 22.9566 20.9213ZM9.75 5.90625C9.75 7.2129 10.7035 8.375 12 8.375C13.2965 8.375 14.25 7.2129 14.25 5.90625C14.25 4.5996 13.2965 3.4375 12 3.4375C10.7035 3.4375 9.75 4.5996 9.75 5.90625ZM8.5 14.1569C9.02544 14.934 9.56299 15.6798 10.0793 16.3653C10.5456 16.9847 11.243 17.3595 12 17.3595C12.757 17.3595 13.4543 16.9847 13.9206 16.3659C14.4372 15.6804 14.9747 14.9344 15.5 14.1574V23.278L8.5 20.653V14.1569Z" stroke="#215E97"/>
</svg>
