<svg width="25" height="31" viewBox="0 0 25 31" fill="none" xmlns="http://www.w3.org/2000/svg">
<g filter="url(#filter0_d_699_10893)">
<path d="M16.2431 13.883L16.2431 13.883C15.3657 13.9272 14.7705 14.1606 14.2309 14.5969C13.6653 15.0543 13.1404 15.7495 12.4424 16.7811C12.4424 16.7811 12.4423 16.7812 12.4423 16.7812L12.1672 17.1879L12.1671 17.188L11.753 16.9079C11.7276 16.9455 11.6949 16.9777 11.6569 17.0029L16.2431 13.883ZM16.2431 13.883C16.6665 13.8616 17.0616 13.5194 17.0616 13.0398V12.3438C17.0616 12.0943 16.9502 11.8489 16.7139 11.6876C16.5049 11.545 16.245 11.5 15.9858 11.5H14.4478C13.5712 11.5 12.8728 10.801 12.8728 9.95512V9.93106C12.8728 9.83903 12.9503 9.75 13.0664 9.75H17.9579C19.2299 9.75 20.2488 10.7642 20.2491 11.9997L20.25 15.7903C20.25 15.7903 20.25 15.7904 20.25 15.7904C20.2501 16.7497 19.8634 17.6714 19.1725 18.3521L19.5234 18.7083L19.1725 18.3521L17.6061 19.8956L17.457 20.0424V20.2517V22.5H7.29123V20.25V20.0407L7.14218 19.8939L5.98626 18.7548L5.98619 18.7547C5.03347 17.8162 4.5 16.5455 4.5 15.2218V12.4917C4.56482 12.4971 4.6308 12.5 4.69792 12.5H6.09375C6.61132 12.5 7.08885 12.3458 7.48965 12.0887C7.89024 12.3455 8.36773 12.4996 8.88542 12.4996H10.2812C10.5391 12.4996 10.7844 12.4592 11.014 12.3894C11.2807 12.7943 11.6358 13.136 12.0515 13.389M16.2431 13.883L12.0515 13.389M12.0515 13.389C11.4853 13.9819 10.9766 14.6842 10.453 15.4581L10.4529 15.4581L10.1778 15.8649L10.1777 15.8651L10.5918 16.1452C10.5664 16.1827 10.5487 16.2249 10.5398 16.2691C10.5309 16.3134 10.531 16.359 10.54 16.4032L12.0515 13.389ZM10.4144 17.0398L10.9946 17.4211L10.9947 17.4211C11.0873 17.482 11.1909 17.5241 11.2994 17.5452C11.4079 17.5664 11.5195 17.5663 11.6279 17.5449C11.6279 17.5449 11.6279 17.5449 11.6279 17.5449L10.4144 17.0398ZM14.6658 1.6875V7.375H13.0707C13.0041 7.375 12.9385 7.37786 12.8741 7.38323V1.6875C12.8741 1.59086 12.9555 1.5 13.072 1.5H14.4679C14.5844 1.5 14.6658 1.59086 14.6658 1.6875ZM18.8529 3.0625V7.46955C18.5665 7.4098 18.2677 7.375 17.957 7.375H17.0612V3.0625C17.0612 2.96586 17.1425 2.875 17.2591 2.875H18.6549C18.7715 2.875 18.8529 2.96586 18.8529 3.0625ZM6.09375 10.125H4.69792C4.58134 10.125 4.5 10.0341 4.5 9.9375V4.4375C4.5 4.34086 4.58134 4.25 4.69792 4.25H6.09375C6.21032 4.25 6.29167 4.34086 6.29167 4.4375V9.9375C6.29167 10.0341 6.21032 10.125 6.09375 10.125ZM10.2808 10.125H8.88498C8.76841 10.125 8.68706 10.0341 8.68706 9.9375V3.0625C8.68706 2.96586 8.76841 2.875 8.88498 2.875H10.2808C10.3974 2.875 10.4787 2.96586 10.4787 3.0625V9.9375C10.4787 10.0341 10.3974 10.125 10.2808 10.125Z" stroke="#215E97"/>
</g>
<defs>
<filter id="filter0_d_699_10893" x="-4" y="0" width="32" height="32" filterUnits="userSpaceOnUse" color-interpolation-filters="sRGB">
<feFlood flood-opacity="0" result="BackgroundImageFix"/>
<feColorMatrix in="SourceAlpha" type="matrix" values="0 0 0 0 0 0 0 0 0 0 0 0 0 0 0 0 0 0 127 0" result="hardAlpha"/>
<feOffset dy="4"/>
<feGaussianBlur stdDeviation="2"/>
<feComposite in2="hardAlpha" operator="out"/>
<feColorMatrix type="matrix" values="0 0 0 0 0 0 0 0 0 0 0 0 0 0 0 0 0 0 0.25 0"/>
<feBlend mode="normal" in2="BackgroundImageFix" result="effect1_dropShadow_699_10893"/>
<feBlend mode="normal" in="SourceGraphic" in2="effect1_dropShadow_699_10893" result="shape"/>
</filter>
</defs>
</svg>
