<svg width="17" height="22" viewBox="0 0 17 22" fill="none" xmlns="http://www.w3.org/2000/svg">
<path d="M12.2431 12.883L12.2431 12.883C11.3657 12.9272 10.7705 13.1606 10.2309 13.5969C9.66533 14.0543 9.14045 14.7495 8.44238 15.7811C8.44236 15.7811 8.44234 15.7812 8.44232 15.7812L8.16724 16.1879L8.16714 16.188L7.75298 15.9079C7.72759 15.9455 7.69493 15.9777 7.65687 16.0029L12.2431 12.883ZM12.2431 12.883C12.6665 12.8616 13.0616 12.5194 13.0616 12.0398V11.3438C13.0616 11.0943 12.9502 10.8489 12.7139 10.6876C12.5049 10.545 12.245 10.5 11.9858 10.5H10.4478C9.57122 10.5 8.87282 9.80097 8.87282 8.95512V8.93106C8.87282 8.83903 8.95035 8.75 9.06637 8.75H13.9579C15.2299 8.75 16.2488 9.76421 16.2491 10.9997L16.25 14.7903C16.25 14.7903 16.25 14.7904 16.25 14.7904C16.2501 15.7497 15.8634 16.6714 15.1725 17.3521L15.5234 17.7083L15.1725 17.3521L13.6061 18.8956L13.457 19.0424V19.2517V21.5H3.29123V19.25V19.0407L3.14218 18.8939L1.98626 17.7548L1.98619 17.7547C1.03347 16.8162 0.5 15.5455 0.5 14.2218V11.4917C0.564818 11.4971 0.630802 11.5 0.697917 11.5H2.09375C2.61132 11.5 3.08885 11.3458 3.48965 11.0887C3.89024 11.3455 4.36773 11.4996 4.88542 11.4996H6.28125C6.53914 11.4996 6.78445 11.4592 7.01397 11.3894C7.28069 11.7943 7.63581 12.136 8.0515 12.389M12.2431 12.883L8.0515 12.389M8.0515 12.389C7.48531 12.9819 6.97656 13.6842 6.45295 14.4581L6.45291 14.4581L6.17781 14.8649L6.17767 14.8651L6.59182 15.1452C6.5664 15.1827 6.54874 15.2249 6.53984 15.2691C6.53095 15.3134 6.531 15.359 6.53999 15.4032L8.0515 12.389ZM6.41445 16.0398L6.99463 16.4211L6.99466 16.4211C7.08734 16.482 7.19091 16.5241 7.29939 16.5452C7.40786 16.5664 7.51945 16.5663 7.6279 16.5449C7.62791 16.5449 7.62791 16.5449 7.62792 16.5449L6.41445 16.0398ZM10.6658 0.6875V6.375H9.07074C9.00405 6.375 8.9385 6.37786 8.87413 6.38323V0.6875C8.87413 0.590861 8.95547 0.5 9.07204 0.5H10.4679C10.5844 0.5 10.6658 0.590861 10.6658 0.6875ZM14.8529 2.0625V6.46955C14.5665 6.4098 14.2677 6.375 13.957 6.375H13.0612V2.0625C13.0612 1.96586 13.1425 1.875 13.2591 1.875H14.6549C14.7715 1.875 14.8529 1.96586 14.8529 2.0625ZM2.09375 9.125H0.697917C0.581345 9.125 0.5 9.03414 0.5 8.9375V3.4375C0.5 3.34086 0.581345 3.25 0.697917 3.25H2.09375C2.21032 3.25 2.29167 3.34086 2.29167 3.4375V8.9375C2.29167 9.03414 2.21032 9.125 2.09375 9.125ZM6.28081 9.125H4.88498C4.76841 9.125 4.68706 9.03414 4.68706 8.9375V2.0625C4.68706 1.96586 4.76841 1.875 4.88498 1.875H6.28081C6.39739 1.875 6.47873 1.96586 6.47873 2.0625V8.9375C6.47873 9.03414 6.39739 9.125 6.28081 9.125Z" stroke="#215E97"/>
</svg>
