<svg width="24" height="24" viewBox="0 0 24 24" fill="none" xmlns="http://www.w3.org/2000/svg">
<path d="M23.4267 4.3234L23.4267 4.32336L21.3965 2.29277C21.2091 2.10537 20.9548 2 20.6893 2H13.5H13V1.5V0.75C13 0.611771 12.8882 0.5 12.75 0.5H11.25C11.1118 0.5 11 0.611771 11 0.75V1.5V2H10.5H2.62491C2.27995 2 1.9999 2.28005 1.9999 2.625V6.375C1.9999 6.71995 2.27995 7 2.62491 7H20.6893C20.9545 7 21.2087 6.89479 21.3968 6.70693L23.4264 4.67735L23.4267 4.3234ZM23.4267 4.3234C23.5242 4.42086 23.5247 4.57865 23.4267 4.67707V4.3234ZM13 10.5V11H13.5H21.3751C21.7201 11 22.0001 11.2801 22.0001 11.625V15.375C22.0001 15.7199 21.7201 16 21.3751 16H3.3107C3.04522 16 2.79086 15.8946 2.60346 15.7072L0.57328 13.6771C0.475573 13.5794 0.475573 13.4211 0.57328 13.3234L0.573321 13.3234L2.60316 11.2931C2.60324 11.293 2.60333 11.2929 2.60341 11.2928C2.79156 11.1051 3.04558 11 3.3107 11H10.5H11V10.5V9.5H13V10.5ZM11.25 23.5C11.1118 23.5 11 23.3882 11 23.25V18.5H13V23.25C13 23.3882 12.8882 23.5 12.75 23.5H11.25Z" stroke="#215E97"/>
</svg>
