<svg width="24" height="24" viewBox="0 0 24 24" fill="none" xmlns="http://www.w3.org/2000/svg">
<path d="M18.0631 2.11382L18.4388 1.75313L18.0631 1.39243L17.2402 0.602544C17.24 0.602293 17.2397 0.602044 17.2395 0.601796C17.223 0.585513 17.2212 0.575541 17.2207 0.572583C17.2197 0.566872 17.2198 0.556974 17.2251 0.54454C17.2305 0.532113 17.2393 0.521445 17.2501 0.514162C17.2589 0.50817 17.2754 0.5 17.3066 0.5H21.1641C21.1927 0.5 21.216 0.510985 21.2316 0.525928C21.2469 0.540596 21.25 0.553749 21.25 0.5625V4.26562C21.25 4.28214 21.246 4.28916 21.2422 4.29447C21.2364 4.30237 21.2239 4.31391 21.2032 4.32221C21.1825 4.33047 21.1614 4.3323 21.1441 4.32943C21.1295 4.32698 21.1134 4.32072 21.0953 4.30337L20.2701 3.51118L19.9238 3.17877L19.5776 3.51118L15.6371 7.29399L15.3373 7.58183L15.5655 7.92921C16.1978 8.89171 16.5625 10.0297 16.5625 11.25C16.5625 14.2071 14.4062 16.7045 11.4869 17.3428L11.0938 17.4288V17.8312V19.125V19.625H11.5938H13.3516C13.3802 19.625 13.4036 19.636 13.4191 19.6509C13.4344 19.6656 13.4375 19.6787 13.4375 19.6875V21.5625C13.4375 21.5713 13.4344 21.5844 13.4191 21.5991C13.4036 21.614 13.3802 21.625 13.3516 21.625H11.5938H11.0938V22.125V23.4375C11.0938 23.4463 11.0906 23.4594 11.0754 23.4741C11.0598 23.489 11.0365 23.5 11.0078 23.5H9.05469C9.02603 23.5 9.0027 23.489 8.98713 23.4741C8.97186 23.4594 8.96875 23.4463 8.96875 23.4375V22.125V21.625H8.46875H6.71094C6.68228 21.625 6.65895 21.614 6.64338 21.5991C6.62811 21.5844 6.625 21.5713 6.625 21.5625V19.6875C6.625 19.6787 6.62811 19.6656 6.64338 19.6509C6.65895 19.636 6.68228 19.625 6.71094 19.625H8.46875H8.96875V19.125V17.8312V17.4282L8.57486 17.3426C5.65673 16.7089 3.5 14.2076 3.5 11.25C3.5 7.81862 6.40612 5 10.0312 5C11.3154 5 12.5102 5.35391 13.5174 5.96366L13.8458 6.16244L14.1226 5.89663L18.0631 2.11382ZM5.625 11.25C5.625 13.6124 7.62122 15.5 10.0312 15.5C12.4413 15.5 14.4375 13.6124 14.4375 11.25C14.4375 8.88763 12.4413 7 10.0312 7C7.62122 7 5.625 8.88763 5.625 11.25Z" stroke="#215E97"/>
</svg>
