<svg width="32" height="27" viewBox="0 0 32 27" fill="none" xmlns="http://www.w3.org/2000/svg">
<g filter="url(#filter0_d_734_10973)">
<path d="M20.2782 12.6979C20.4354 12.9502 20.6075 13.2001 20.7943 13.4465M20.2782 12.6979L20.7943 13.4465M20.2782 12.6979C19.9951 12.244 20.1029 11.6048 20.5623 11.2971M20.2782 12.6979C20.2782 12.698 20.2782 12.698 20.2783 12.6981L20.5623 11.2971M20.7943 13.4465C20.6134 13.5898 20.4248 13.7293 20.2283 13.8648M20.7943 13.4465L20.2283 13.8648M20.5623 11.2971C20.5627 11.2968 20.5632 11.2965 20.5637 11.2961L20.8053 11.1331L20.8088 11.1307L20.8088 11.1307L20.9023 11.0687H19.45C18.8726 11.0687 18.5 10.5601 18.5 10.0625V9.3875C18.5 8.88991 18.8726 8.38125 19.45 8.38125H21.35V8.20625C21.35 7.70866 21.7226 7.2 22.3 7.2H22.9C23.4774 7.2 23.85 7.70866 23.85 8.20625V8.38125H25.75C26.3274 8.38125 26.7 8.88991 26.7 9.3875V10.0625C26.7 10.5601 26.3274 11.0687 25.75 11.0687H25.6965C25.4305 11.8818 24.9911 12.6826 24.4169 13.4442C24.603 13.5924 24.7918 13.7334 24.9833 13.865L24.9855 13.8665C25.416 14.166 25.5205 14.7441 25.3011 15.1837L25.3 15.1859L25.0038 15.7723L25.0025 15.7748C24.752 16.2638 24.1413 16.4752 23.6504 16.142L23.6455 16.1386L23.6455 16.1386C23.2829 15.8861 22.9337 15.6204 22.603 15.3414C22.2753 15.6179 21.9278 15.8858 21.5605 16.1396L21.5571 16.142L21.5571 16.142C21.0662 16.4752 20.4555 16.2638 20.205 15.7748L20.2037 15.7723L19.908 15.1869C19.9079 15.1867 19.9078 15.1866 19.9077 15.1864C19.6853 14.748 19.7925 14.1632 20.2283 13.8648M20.5623 11.2971L20.2292 13.8642C20.2289 13.8644 20.2286 13.8646 20.2283 13.8648M9.33232 11.9967L9.40022 11.7387L9.4669 11.9967H9.33232ZM22.9409 11.0687C22.843 11.238 22.7325 11.4088 22.6101 11.5801C22.5291 11.4676 22.4529 11.355 22.3816 11.2427C22.3413 11.1786 22.2943 11.1204 22.2422 11.0687H22.9409ZM5.73013 14.9846L5.73013 14.9846L5.72935 14.9872C5.56101 15.5553 5.91425 16.3 6.63625 16.3H7.495C7.96142 16.3 8.30706 15.9531 8.40999 15.5594L8.41 15.5594L8.41082 15.5562L8.65624 14.5914H10.1391L10.3938 15.5639L10.3939 15.5642C10.4458 15.7618 10.5556 15.9454 10.7177 16.0818C10.8809 16.2191 11.0879 16.2998 11.3084 16.3H11.3088H12.1675C12.896 16.3 13.2419 15.5524 13.0744 14.9872L13.0744 14.9872L13.0736 14.9846L10.9174 7.85065L10.9174 7.85064L10.9157 7.84517C10.7973 7.46916 10.4551 7.15359 10.0113 7.15359H8.7925C8.34696 7.15359 8.00593 7.46298 7.8872 7.84797L7.8872 7.84796L7.88638 7.85065L5.73013 14.9846ZM27.1 18H17.1V5.5H27.1C27.2689 5.5 27.5 5.67056 27.5 6.0125V17.4875C27.5 17.8294 27.2689 18 27.1 18ZM4.5 17.4875V6.0125C4.5 5.67056 4.73113 5.5 4.9 5.5H14.9V18H4.9C4.73113 18 4.5 17.8294 4.5 17.4875Z" stroke="#215E97"/>
</g>
<defs>
<filter id="filter0_d_734_10973" x="0" y="0" width="32" height="32" filterUnits="userSpaceOnUse" color-interpolation-filters="sRGB">
<feFlood flood-opacity="0" result="BackgroundImageFix"/>
<feColorMatrix in="SourceAlpha" type="matrix" values="0 0 0 0 0 0 0 0 0 0 0 0 0 0 0 0 0 0 127 0" result="hardAlpha"/>
<feOffset dy="4"/>
<feGaussianBlur stdDeviation="2"/>
<feComposite in2="hardAlpha" operator="out"/>
<feColorMatrix type="matrix" values="0 0 0 0 0 0 0 0 0 0 0 0 0 0 0 0 0 0 0.25 0"/>
<feBlend mode="normal" in2="BackgroundImageFix" result="effect1_dropShadow_734_10973"/>
<feBlend mode="normal" in="SourceGraphic" in2="effect1_dropShadow_734_10973" result="shape"/>
</filter>
</defs>
</svg>
