<svg width="24" height="14" viewBox="0 0 24 14" fill="none" xmlns="http://www.w3.org/2000/svg">
<path d="M16.2782 7.6979C16.4354 7.95022 16.6075 8.20015 16.7943 8.4465M16.2782 7.6979L16.7943 8.4465M16.2782 7.6979C15.9951 7.24396 16.1029 6.60485 16.5623 6.29711M16.2782 7.6979C16.2782 7.69796 16.2782 7.69801 16.2783 7.69807L16.5623 6.29711M16.7943 8.4465C16.6134 8.58983 16.4248 8.72927 16.2283 8.86479M16.7943 8.4465L16.2283 8.86479M16.5623 6.29711C16.5627 6.29678 16.5632 6.29646 16.5637 6.29614L16.8053 6.13308L16.8088 6.13069L16.8088 6.13071L16.9023 6.06875H15.45C14.8726 6.06875 14.5 5.56009 14.5 5.0625V4.3875C14.5 3.88991 14.8726 3.38125 15.45 3.38125H17.35V3.20625C17.35 2.70866 17.7226 2.2 18.3 2.2H18.9C19.4774 2.2 19.85 2.70866 19.85 3.20625V3.38125H21.75C22.3274 3.38125 22.7 3.88991 22.7 4.3875V5.0625C22.7 5.56009 22.3274 6.06875 21.75 6.06875H21.6965C21.4305 6.88183 20.9911 7.68263 20.4169 8.44424C20.603 8.59236 20.7918 8.73338 20.9833 8.86501L20.9855 8.86654C21.416 9.16595 21.5205 9.74415 21.3011 10.1837L21.3 10.1859L21.0038 10.7723L21.0025 10.7748C20.752 11.2638 20.1413 11.4752 19.6504 11.142L19.6455 11.1386L19.6455 11.1386C19.2829 10.8861 18.9337 10.6204 18.603 10.3414C18.2753 10.6179 17.9278 10.8858 17.5605 11.1396L17.5571 11.142L17.5571 11.142C17.0662 11.4752 16.4555 11.2638 16.205 10.7748L16.2037 10.7723L15.908 10.1869C15.9079 10.1867 15.9078 10.1866 15.9077 10.1864C15.6853 9.74798 15.7925 9.16317 16.2283 8.86479M16.5623 6.29711L16.2292 8.86415C16.2289 8.86436 16.2286 8.86458 16.2283 8.86479M5.33232 6.99672L5.40022 6.73866L5.4669 6.99672H5.33232ZM18.9409 6.06875C18.843 6.238 18.7325 6.40881 18.6101 6.5801C18.5291 6.46755 18.4529 6.35499 18.3816 6.24272C18.3413 6.1786 18.2943 6.12039 18.2422 6.06875H18.9409ZM1.73013 9.98456L1.73013 9.98455L1.72935 9.98717C1.56101 10.5553 1.91425 11.3 2.63625 11.3H3.495C3.96142 11.3 4.30706 10.9531 4.40999 10.5594L4.41 10.5594L4.41082 10.5562L4.65624 9.59141H6.1391L6.39382 10.5639L6.3939 10.5642C6.44579 10.7618 6.55563 10.9454 6.71767 11.0818C6.88086 11.2191 7.08786 11.2998 7.30836 11.3H7.30875H8.1675C8.89601 11.3 9.24186 10.5524 9.0744 9.98717L9.07441 9.98717L9.07362 9.98456L6.91737 2.85065L6.9174 2.85064L6.91567 2.84517C6.7973 2.46916 6.45514 2.15359 6.01125 2.15359H4.7925C4.34696 2.15359 4.00593 2.46298 3.8872 2.84797L3.8872 2.84796L3.88638 2.85065L1.73013 9.98456ZM23.1 13H13.1V0.5H23.1C23.2689 0.5 23.5 0.670557 23.5 1.0125V12.4875C23.5 12.8294 23.2689 13 23.1 13ZM0.5 12.4875V1.0125C0.5 0.670558 0.731129 0.5 0.9 0.5H10.9V13H0.9C0.731129 13 0.5 12.8294 0.5 12.4875Z" stroke="#215E97"/>
</svg>
