<svg width="24" height="24" viewBox="0 0 24 24" fill="none" xmlns="http://www.w3.org/2000/svg">
<g clip-path="url(#clip0_690_10687)">
<path d="M13.5 12C13.5 14.6864 12.8456 17.0942 11.8139 18.8138C10.7762 20.5434 9.41222 21.5 8 21.5C6.58778 21.5 5.22383 20.5434 4.18611 18.8138C3.15436 17.0942 2.5 14.6864 2.5 12C2.5 9.31362 3.15436 6.90576 4.18611 5.18618C5.22383 3.45665 6.58778 2.5 8 2.5C9.41222 2.5 10.7762 3.45665 11.8139 5.18618C12.8456 6.90576 13.5 9.31362 13.5 12Z" stroke="#215E97"/>
<path d="M13.5 12C13.5 14.6864 12.8456 17.0942 11.8139 18.8138C10.7762 20.5434 9.41222 21.5 8 21.5C6.58778 21.5 5.22383 20.5434 4.18611 18.8138C3.15436 17.0942 2.5 14.6864 2.5 12C2.5 9.31362 3.15436 6.90576 4.18611 5.18618C5.22383 3.45665 6.58778 2.5 8 2.5C9.41222 2.5 10.7762 3.45665 11.8139 5.18618C12.8456 6.90576 13.5 9.31362 13.5 12Z" stroke="#215E97"/>
<path d="M15.5 12C15.5 15.2288 14.6266 18.1292 13.2408 20.2079C11.8527 22.2901 9.98995 23.5 8 23.5C6.01005 23.5 4.14729 22.2901 2.75917 20.2079C1.37338 18.1292 0.5 15.2288 0.5 12C0.5 8.77124 1.37338 5.87075 2.75917 3.79207C4.14729 1.70989 6.01005 0.5 8 0.5C9.98995 0.5 11.8527 1.70989 13.2408 3.79207C14.6266 5.87075 15.5 8.77124 15.5 12Z" stroke="#215E97"/>
<path d="M15.5 12C15.5 15.2288 14.6266 18.1292 13.2408 20.2079C11.8527 22.2901 9.98995 23.5 8 23.5C6.01005 23.5 4.14729 22.2901 2.75917 20.2079C1.37338 18.1292 0.5 15.2288 0.5 12C0.5 8.77124 1.37338 5.87075 2.75917 3.79207C4.14729 1.70989 6.01005 0.5 8 0.5C9.98995 0.5 11.8527 1.70989 13.2408 3.79207C14.6266 5.87075 15.5 8.77124 15.5 12Z" stroke="#215E97"/>
<path d="M21.5 12C21.5 14.6864 20.8456 17.0942 19.8139 18.8138C18.7762 20.5434 17.4122 21.5 16 21.5C14.5878 21.5 13.2238 20.5434 12.1861 18.8138C11.1544 17.0942 10.5 14.6864 10.5 12C10.5 9.31362 11.1544 6.90576 12.1861 5.18618C13.2238 3.45665 14.5878 2.5 16 2.5C17.4122 2.5 18.7762 3.45665 19.8139 5.18618C20.8456 6.90576 21.5 9.31362 21.5 12Z" stroke="#215E97"/>
<path d="M21.5 12C21.5 14.6864 20.8456 17.0942 19.8139 18.8138C18.7762 20.5434 17.4122 21.5 16 21.5C14.5878 21.5 13.2238 20.5434 12.1861 18.8138C11.1544 17.0942 10.5 14.6864 10.5 12C10.5 9.31362 11.1544 6.90576 12.1861 5.18618C13.2238 3.45665 14.5878 2.5 16 2.5C17.4122 2.5 18.7762 3.45665 19.8139 5.18618C20.8456 6.90576 21.5 9.31362 21.5 12Z" stroke="#215E97"/>
<path d="M23.5 12C23.5 15.2288 22.6266 18.1292 21.2408 20.2079C19.8527 22.2901 17.9899 23.5 16 23.5C14.0101 23.5 12.1473 22.2901 10.7592 20.2079C9.37338 18.1292 8.5 15.2288 8.5 12C8.5 8.77124 9.37338 5.87075 10.7592 3.79207C12.1473 1.70989 14.0101 0.5 16 0.5C17.9899 0.5 19.8527 1.70989 21.2408 3.79207C22.6266 5.87075 23.5 8.77124 23.5 12Z" stroke="#215E97"/>
<path d="M23.5 12C23.5 15.2288 22.6266 18.1292 21.2408 20.2079C19.8527 22.2901 17.9899 23.5 16 23.5C14.0101 23.5 12.1473 22.2901 10.7592 20.2079C9.37338 18.1292 8.5 15.2288 8.5 12C8.5 8.77124 9.37338 5.87075 10.7592 3.79207C12.1473 1.70989 14.0101 0.5 16 0.5C17.9899 0.5 19.8527 1.70989 21.2408 3.79207C22.6266 5.87075 23.5 8.77124 23.5 12Z" stroke="#215E97"/>
</g>
<defs>
<clipPath id="clip0_690_10687">
<rect width="24" height="24" fill="white"/>
</clipPath>
</defs>
</svg>
