<svg width="32" height="32" viewBox="0 0 32 32" fill="none" xmlns="http://www.w3.org/2000/svg">
<g filter="url(#filter0_d_689_10638)">
<g clip-path="url(#clip0_689_10638)">
<rect width="24" height="24" transform="translate(4)" fill="#E6F7FF"/>
<path d="M17.5 12C17.5 14.6864 16.8456 17.0942 15.8139 18.8138C14.7762 20.5434 13.4122 21.5 12 21.5C10.5878 21.5 9.22383 20.5434 8.18611 18.8138C7.15436 17.0942 6.5 14.6864 6.5 12C6.5 9.31362 7.15436 6.90576 8.18611 5.18618C9.22383 3.45665 10.5878 2.5 12 2.5C13.4122 2.5 14.7762 3.45665 15.8139 5.18618C16.8456 6.90576 17.5 9.31362 17.5 12Z" stroke="#215E97"/>
<path d="M17.5 12C17.5 14.6864 16.8456 17.0942 15.8139 18.8138C14.7762 20.5434 13.4122 21.5 12 21.5C10.5878 21.5 9.22383 20.5434 8.18611 18.8138C7.15436 17.0942 6.5 14.6864 6.5 12C6.5 9.31362 7.15436 6.90576 8.18611 5.18618C9.22383 3.45665 10.5878 2.5 12 2.5C13.4122 2.5 14.7762 3.45665 15.8139 5.18618C16.8456 6.90576 17.5 9.31362 17.5 12Z" stroke="#215E97"/>
<path d="M19.5 12C19.5 15.2288 18.6266 18.1292 17.2408 20.2079C15.8527 22.2901 13.9899 23.5 12 23.5C10.0101 23.5 8.14729 22.2901 6.75917 20.2079C5.37338 18.1292 4.5 15.2288 4.5 12C4.5 8.77124 5.37338 5.87075 6.75917 3.79207C8.14729 1.70989 10.0101 0.5 12 0.5C13.9899 0.5 15.8527 1.70989 17.2408 3.79207C18.6266 5.87075 19.5 8.77124 19.5 12Z" stroke="#215E97"/>
<path d="M19.5 12C19.5 15.2288 18.6266 18.1292 17.2408 20.2079C15.8527 22.2901 13.9899 23.5 12 23.5C10.0101 23.5 8.14729 22.2901 6.75917 20.2079C5.37338 18.1292 4.5 15.2288 4.5 12C4.5 8.77124 5.37338 5.87075 6.75917 3.79207C8.14729 1.70989 10.0101 0.5 12 0.5C13.9899 0.5 15.8527 1.70989 17.2408 3.79207C18.6266 5.87075 19.5 8.77124 19.5 12Z" stroke="#215E97"/>
<path d="M25.5 12C25.5 14.6864 24.8456 17.0942 23.8139 18.8138C22.7762 20.5434 21.4122 21.5 20 21.5C18.5878 21.5 17.2238 20.5434 16.1861 18.8138C15.1544 17.0942 14.5 14.6864 14.5 12C14.5 9.31362 15.1544 6.90576 16.1861 5.18618C17.2238 3.45665 18.5878 2.5 20 2.5C21.4122 2.5 22.7762 3.45665 23.8139 5.18618C24.8456 6.90576 25.5 9.31362 25.5 12Z" stroke="#215E97"/>
<path d="M25.5 12C25.5 14.6864 24.8456 17.0942 23.8139 18.8138C22.7762 20.5434 21.4122 21.5 20 21.5C18.5878 21.5 17.2238 20.5434 16.1861 18.8138C15.1544 17.0942 14.5 14.6864 14.5 12C14.5 9.31362 15.1544 6.90576 16.1861 5.18618C17.2238 3.45665 18.5878 2.5 20 2.5C21.4122 2.5 22.7762 3.45665 23.8139 5.18618C24.8456 6.90576 25.5 9.31362 25.5 12Z" stroke="#215E97"/>
<path d="M27.5 12C27.5 15.2288 26.6266 18.1292 25.2408 20.2079C23.8527 22.2901 21.9899 23.5 20 23.5C18.0101 23.5 16.1473 22.2901 14.7592 20.2079C13.3734 18.1292 12.5 15.2288 12.5 12C12.5 8.77124 13.3734 5.87075 14.7592 3.79207C16.1473 1.70989 18.0101 0.5 20 0.5C21.9899 0.5 23.8527 1.70989 25.2408 3.79207C26.6266 5.87075 27.5 8.77124 27.5 12Z" stroke="#215E97"/>
<path d="M27.5 12C27.5 15.2288 26.6266 18.1292 25.2408 20.2079C23.8527 22.2901 21.9899 23.5 20 23.5C18.0101 23.5 16.1473 22.2901 14.7592 20.2079C13.3734 18.1292 12.5 15.2288 12.5 12C12.5 8.77124 13.3734 5.87075 14.7592 3.79207C16.1473 1.70989 18.0101 0.5 20 0.5C21.9899 0.5 23.8527 1.70989 25.2408 3.79207C26.6266 5.87075 27.5 8.77124 27.5 12Z" stroke="#215E97"/>
</g>
<g clip-path="url(#clip1_689_10638)">
<rect width="24" height="24" transform="translate(4)" fill="#E6F7FF"/>
<path d="M17.5 12C17.5 14.6864 16.8456 17.0942 15.8139 18.8138C14.7762 20.5434 13.4122 21.5 12 21.5C10.5878 21.5 9.22383 20.5434 8.18611 18.8138C7.15436 17.0942 6.5 14.6864 6.5 12C6.5 9.31362 7.15436 6.90576 8.18611 5.18618C9.22383 3.45665 10.5878 2.5 12 2.5C13.4122 2.5 14.7762 3.45665 15.8139 5.18618C16.8456 6.90576 17.5 9.31362 17.5 12Z" stroke="#215E97"/>
<path d="M17.5 12C17.5 14.6864 16.8456 17.0942 15.8139 18.8138C14.7762 20.5434 13.4122 21.5 12 21.5C10.5878 21.5 9.22383 20.5434 8.18611 18.8138C7.15436 17.0942 6.5 14.6864 6.5 12C6.5 9.31362 7.15436 6.90576 8.18611 5.18618C9.22383 3.45665 10.5878 2.5 12 2.5C13.4122 2.5 14.7762 3.45665 15.8139 5.18618C16.8456 6.90576 17.5 9.31362 17.5 12Z" stroke="#215E97"/>
<path d="M19.5 12C19.5 15.2288 18.6266 18.1292 17.2408 20.2079C15.8527 22.2901 13.9899 23.5 12 23.5C10.0101 23.5 8.14729 22.2901 6.75917 20.2079C5.37338 18.1292 4.5 15.2288 4.5 12C4.5 8.77124 5.37338 5.87075 6.75917 3.79207C8.14729 1.70989 10.0101 0.5 12 0.5C13.9899 0.5 15.8527 1.70989 17.2408 3.79207C18.6266 5.87075 19.5 8.77124 19.5 12Z" stroke="#215E97"/>
<path d="M19.5 12C19.5 15.2288 18.6266 18.1292 17.2408 20.2079C15.8527 22.2901 13.9899 23.5 12 23.5C10.0101 23.5 8.14729 22.2901 6.75917 20.2079C5.37338 18.1292 4.5 15.2288 4.5 12C4.5 8.77124 5.37338 5.87075 6.75917 3.79207C8.14729 1.70989 10.0101 0.5 12 0.5C13.9899 0.5 15.8527 1.70989 17.2408 3.79207C18.6266 5.87075 19.5 8.77124 19.5 12Z" stroke="#215E97"/>
<path d="M25.5 12C25.5 14.6864 24.8456 17.0942 23.8139 18.8138C22.7762 20.5434 21.4122 21.5 20 21.5C18.5878 21.5 17.2238 20.5434 16.1861 18.8138C15.1544 17.0942 14.5 14.6864 14.5 12C14.5 9.31362 15.1544 6.90576 16.1861 5.18618C17.2238 3.45665 18.5878 2.5 20 2.5C21.4122 2.5 22.7762 3.45665 23.8139 5.18618C24.8456 6.90576 25.5 9.31362 25.5 12Z" stroke="#215E97"/>
<path d="M25.5 12C25.5 14.6864 24.8456 17.0942 23.8139 18.8138C22.7762 20.5434 21.4122 21.5 20 21.5C18.5878 21.5 17.2238 20.5434 16.1861 18.8138C15.1544 17.0942 14.5 14.6864 14.5 12C14.5 9.31362 15.1544 6.90576 16.1861 5.18618C17.2238 3.45665 18.5878 2.5 20 2.5C21.4122 2.5 22.7762 3.45665 23.8139 5.18618C24.8456 6.90576 25.5 9.31362 25.5 12Z" stroke="#215E97"/>
<path d="M27.5 12C27.5 15.2288 26.6266 18.1292 25.2408 20.2079C23.8527 22.2901 21.9899 23.5 20 23.5C18.0101 23.5 16.1473 22.2901 14.7592 20.2079C13.3734 18.1292 12.5 15.2288 12.5 12C12.5 8.77124 13.3734 5.87075 14.7592 3.79207C16.1473 1.70989 18.0101 0.5 20 0.5C21.9899 0.5 23.8527 1.70989 25.2408 3.79207C26.6266 5.87075 27.5 8.77124 27.5 12Z" stroke="#215E97"/>
<path d="M27.5 12C27.5 15.2288 26.6266 18.1292 25.2408 20.2079C23.8527 22.2901 21.9899 23.5 20 23.5C18.0101 23.5 16.1473 22.2901 14.7592 20.2079C13.3734 18.1292 12.5 15.2288 12.5 12C12.5 8.77124 13.3734 5.87075 14.7592 3.79207C16.1473 1.70989 18.0101 0.5 20 0.5C21.9899 0.5 23.8527 1.70989 25.2408 3.79207C26.6266 5.87075 27.5 8.77124 27.5 12Z" stroke="#215E97"/>
</g>
</g>
<defs>
<filter id="filter0_d_689_10638" x="0" y="0" width="32" height="32" filterUnits="userSpaceOnUse" color-interpolation-filters="sRGB">
<feFlood flood-opacity="0" result="BackgroundImageFix"/>
<feColorMatrix in="SourceAlpha" type="matrix" values="0 0 0 0 0 0 0 0 0 0 0 0 0 0 0 0 0 0 127 0" result="hardAlpha"/>
<feOffset dy="4"/>
<feGaussianBlur stdDeviation="2"/>
<feComposite in2="hardAlpha" operator="out"/>
<feColorMatrix type="matrix" values="0 0 0 0 0 0 0 0 0 0 0 0 0 0 0 0 0 0 0.25 0"/>
<feBlend mode="normal" in2="BackgroundImageFix" result="effect1_dropShadow_689_10638"/>
<feBlend mode="normal" in="SourceGraphic" in2="effect1_dropShadow_689_10638" result="shape"/>
</filter>
<clipPath id="clip0_689_10638">
<rect width="24" height="24" fill="white" transform="translate(4)"/>
</clipPath>
<clipPath id="clip1_689_10638">
<rect width="24" height="24" fill="white" transform="translate(4)"/>
</clipPath>
</defs>
</svg>
