<svg width="22" height="22" viewBox="0 0 22 22" fill="none" xmlns="http://www.w3.org/2000/svg">
<path d="M19.5904 11.2064L19.5905 11.2064L19.9801 11.7733C20.1042 11.9536 20.1533 12.1751 20.1171 12.3909C20.0809 12.6068 19.9622 12.8001 19.7862 12.9301C18.8011 13.6574 17.4004 14.6807 15.2581 16.2355C15.1442 16.3185 15.0078 16.424 14.8543 16.5426C14.4777 16.8336 13.9982 17.2042 13.4964 17.5189C12.7827 17.9665 11.9111 18.3801 11 18.375C10.0885 18.38 9.21664 17.9662 8.50289 17.5185C8.00113 17.2038 7.52173 16.8333 7.14535 16.5424C6.99173 16.4236 6.85528 16.3182 6.74147 16.2352C4.59942 14.6806 3.19885 13.6575 2.21381 12.9301C2.2138 12.9301 2.2138 12.9301 2.2138 12.9301L2.51079 12.5279C2.43907 12.4749 2.39073 12.3962 2.37599 12.3082C2.36124 12.2203 2.38125 12.1301 2.43177 12.0566L19.5904 11.2064ZM19.5904 11.2064C19.3205 10.8137 18.7785 10.7216 18.3941 11.0055C17.4142 11.7293 16.014 12.7523 13.8608 14.315L13.8599 14.3156C13.7173 14.4196 13.5653 14.5374 13.4033 14.6628C13.1045 14.8942 12.772 15.1517 12.4033 15.3966C12.1293 15.5786 11.8608 15.7351 11.6116 15.8441C11.3576 15.9551 11.1561 16.0022 11.0076 15.9999L11.0001 15.9998L10.9926 15.9999C10.8438 16.0021 10.6423 15.955 10.3884 15.844C10.1393 15.7352 9.8709 15.5788 9.59699 15.3968C9.22851 15.152 8.89619 14.8947 8.59735 14.6633C8.43521 14.5377 8.28293 14.4198 8.14009 14.3156L8.13922 14.315C5.98623 12.7525 4.58593 11.7294 3.60588 11.0055C3.22156 10.7216 2.67955 10.8137 2.40957 11.2064L2.40956 11.2064L2.01982 11.7733L19.5904 11.2064ZM8.13922 2.18516L8.1401 2.18452C8.28267 2.08057 8.43475 1.96279 8.59673 1.83733C8.8955 1.60594 9.22797 1.34844 9.59668 1.10349C9.87069 0.921448 10.1392 0.764932 10.3885 0.655984C10.6424 0.54495 10.8439 0.497838 10.9925 0.500079L11 0.500193L11.0076 0.500077C11.1561 0.497812 11.3575 0.544894 11.6115 0.655941C11.8607 0.764896 12.1293 0.921436 12.4034 1.1035C12.7722 1.3485 13.1047 1.60605 13.4035 1.83743C13.5654 1.96286 13.7174 2.0806 13.8599 2.18448L13.8608 2.18512C18.9602 5.88603 19.8396 6.56274 20.9015 7.39518L21.2099 7.00168L20.9015 7.39518C21.0879 7.54136 21.2387 7.72802 21.3424 7.94106C21.4461 8.1541 21.5 8.38793 21.5 8.62487V19.9375C21.5 20.8005 20.8005 21.5 19.9375 21.5H2.0625C1.19954 21.5 0.5 20.8005 0.5 19.9375V8.62486C0.500003 8.38793 0.55389 8.1541 0.657584 7.94106C0.761278 7.72802 0.912064 7.54136 1.09853 7.39518C2.16113 6.56223 3.03927 5.88646 8.13922 2.18516Z" stroke="#215E97"/>
</svg>
