<svg width="30" height="31" viewBox="0 0 30 31" fill="none" xmlns="http://www.w3.org/2000/svg">
<g filter="url(#filter0_d_690_10740)">
<path d="M23.5904 12.2064L23.5905 12.2064L23.9801 12.7733C24.1042 12.9536 24.1533 13.1751 24.1171 13.3909C24.0809 13.6068 23.9622 13.8001 23.7862 13.9301C22.8011 14.6574 21.4004 15.6807 19.2581 17.2355C19.1442 17.3185 19.0078 17.424 18.8543 17.5426C18.4777 17.8336 17.9982 18.2042 17.4964 18.5189C16.7827 18.9665 15.9111 19.3801 15 19.375C14.0885 19.38 13.2166 18.9662 12.5029 18.5185C12.0011 18.2038 11.5217 17.8333 11.1454 17.5424C10.9917 17.4236 10.8553 17.3182 10.7415 17.2352C8.59942 15.6806 7.19885 14.6575 6.21381 13.9301C6.2138 13.9301 6.2138 13.9301 6.2138 13.9301L6.51079 13.5279C6.43907 13.4749 6.39073 13.3962 6.37599 13.3082C6.36124 13.2203 6.38125 13.1301 6.43177 13.0566L23.5904 12.2064ZM23.5904 12.2064C23.3205 11.8137 22.7785 11.7216 22.3941 12.0055C21.4142 12.7293 20.014 13.7523 17.8608 15.315L17.8599 15.3156C17.7173 15.4196 17.5653 15.5374 17.4033 15.6628C17.1045 15.8942 16.772 16.1517 16.4033 16.3966C16.1293 16.5786 15.8608 16.7351 15.6116 16.8441C15.3576 16.9551 15.1561 17.0022 15.0076 16.9999L15.0001 16.9998L14.9926 16.9999C14.8438 17.0021 14.6423 16.955 14.3884 16.844C14.1393 16.7352 13.8709 16.5788 13.597 16.3968C13.2285 16.152 12.8962 15.8947 12.5974 15.6633C12.4352 15.5377 12.2829 15.4198 12.1401 15.3156L12.1392 15.315C9.98623 13.7525 8.58593 12.7294 7.60588 12.0055C7.22156 11.7216 6.67955 11.8137 6.40957 12.2064L6.40956 12.2064L6.01982 12.7733L23.5904 12.2064ZM12.1392 3.18516L12.1401 3.18452C12.2827 3.08057 12.4347 2.96279 12.5967 2.83733C12.8955 2.60594 13.228 2.34844 13.5967 2.10349C13.8707 1.92145 14.1392 1.76493 14.3885 1.65598C14.6424 1.54495 14.8439 1.49784 14.9925 1.50008L15 1.50019L15.0076 1.50008C15.1561 1.49781 15.3575 1.54489 15.6115 1.65594C15.8607 1.7649 16.1293 1.92144 16.4034 2.1035C16.7722 2.3485 17.1047 2.60605 17.4035 2.83743C17.5654 2.96286 17.7174 3.0806 17.8599 3.18448L17.8608 3.18512C22.9602 6.88603 23.8396 7.56274 24.9015 8.39518L25.2099 8.00168L24.9015 8.39518C25.0879 8.54136 25.2387 8.72802 25.3424 8.94106C25.4461 9.1541 25.5 9.38793 25.5 9.62487V20.9375C25.5 21.8005 24.8005 22.5 23.9375 22.5H6.0625C5.19954 22.5 4.5 21.8005 4.5 20.9375V9.62486C4.5 9.38793 4.55389 9.1541 4.65758 8.94106C4.76128 8.72802 4.91206 8.54136 5.09853 8.39518C6.16113 7.56223 7.03927 6.88646 12.1392 3.18516Z" stroke="#215E97"/>
</g>
<defs>
<filter id="filter0_d_690_10740" x="-1" y="0" width="32" height="32" filterUnits="userSpaceOnUse" color-interpolation-filters="sRGB">
<feFlood flood-opacity="0" result="BackgroundImageFix"/>
<feColorMatrix in="SourceAlpha" type="matrix" values="0 0 0 0 0 0 0 0 0 0 0 0 0 0 0 0 0 0 127 0" result="hardAlpha"/>
<feOffset dy="4"/>
<feGaussianBlur stdDeviation="2"/>
<feComposite in2="hardAlpha" operator="out"/>
<feColorMatrix type="matrix" values="0 0 0 0 0 0 0 0 0 0 0 0 0 0 0 0 0 0 0.25 0"/>
<feBlend mode="normal" in2="BackgroundImageFix" result="effect1_dropShadow_690_10740"/>
<feBlend mode="normal" in="SourceGraphic" in2="effect1_dropShadow_690_10740" result="shape"/>
</filter>
</defs>
</svg>
