<svg width="25" height="20" viewBox="0 0 25 20" fill="none" xmlns="http://www.w3.org/2000/svg">
<path d="M1.05895 2.89263L1.05895 2.89263L6.44444 0.738507V16.3449L0.759041 18.9327C0.633447 18.9771 0.5 18.884 0.5 18.7491V3.71799C0.5 3.71796 0.5 3.71792 0.5 3.71788C0.500062 3.54025 0.553329 3.3667 0.652935 3.21962L0.24538 2.94361L0.652935 3.21962C0.752563 3.0725 0.89398 2.95861 1.05895 2.89263ZM23.9412 16.5518L23.941 16.5518L18.5556 18.7059V3.09955L24.241 0.511753C24.3666 0.467374 24.5 0.560425 24.5 0.695312V15.7266C24.5 15.9042 24.4468 16.0778 24.3471 16.2249C24.2475 16.372 24.1061 16.4858 23.9412 16.5518ZM8.83333 0.693713L16.1667 3.13816V18.7507L8.83333 16.3063V0.693713Z" stroke="#215E97"/>
</svg>
