<svg width="22" height="22" viewBox="0 0 22 22" fill="none" xmlns="http://www.w3.org/2000/svg">
<path d="M19.9286 20.625V21.125H20.4286H21.4107C21.4559 21.125 21.4853 21.1411 21.4981 21.1523C21.4988 21.1529 21.4994 21.1535 21.5 21.154V21.5H0.5V21.154C0.500552 21.1535 0.50117 21.1529 0.501858 21.1523C0.514729 21.1411 0.544146 21.125 0.589286 21.125H1.57143H2.07143V20.625V1.03125C2.07143 0.798468 2.31042 0.5 2.75 0.5H19.25C19.6896 0.5 19.9286 0.798468 19.9286 1.03125V20.625ZM12.5714 21.125H13.0714V20.625V17.0156C13.0714 16.3941 12.5189 16 11.9821 16H10.0179C9.48108 16 8.92857 16.3941 8.92857 17.0156V20.625V21.125H9.42857H12.5714ZM6.875 2.25C6.33823 2.25 5.78571 2.6441 5.78571 3.26562V4.98438C5.78571 5.6059 6.33823 6 6.875 6H8.83929C9.37606 6 9.92857 5.6059 9.92857 4.98438V3.26562C9.92857 2.6441 9.37606 2.25 8.83929 2.25H6.875ZM6.875 6.375C6.33823 6.375 5.78571 6.7691 5.78571 7.39062V9.10938C5.78571 9.7309 6.33823 10.125 6.875 10.125H8.83929C9.37606 10.125 9.92857 9.7309 9.92857 9.10938V7.39062C9.92857 6.7691 9.37606 6.375 8.83929 6.375H6.875ZM6.875 14.25H8.83929C9.37606 14.25 9.92857 13.8559 9.92857 13.2344V11.5156C9.92857 10.8941 9.37606 10.5 8.83929 10.5H6.875C6.33823 10.5 5.78571 10.8941 5.78571 11.5156V13.2344C5.78571 13.8559 6.33823 14.25 6.875 14.25ZM15.125 14.25C15.6618 14.25 16.2143 13.8559 16.2143 13.2344V11.5156C16.2143 10.8941 15.6618 10.5 15.125 10.5H13.1607C12.6239 10.5 12.0714 10.8941 12.0714 11.5156V13.2344C12.0714 13.8559 12.6239 14.25 13.1607 14.25H15.125ZM15.125 10.125C15.6618 10.125 16.2143 9.7309 16.2143 9.10938V7.39062C16.2143 6.7691 15.6618 6.375 15.125 6.375H13.1607C12.6239 6.375 12.0714 6.7691 12.0714 7.39062V9.10938C12.0714 9.7309 12.6239 10.125 13.1607 10.125H15.125ZM15.125 6C15.6618 6 16.2143 5.6059 16.2143 4.98438V3.26562C16.2143 2.6441 15.6618 2.25 15.125 2.25H13.1607C12.6239 2.25 12.0714 2.6441 12.0714 3.26562V4.98438C12.0714 5.6059 12.6239 6 13.1607 6H15.125Z" stroke="#215E97"/>
</svg>
