<svg width="32" height="32" viewBox="0 0 32 32" fill="none" xmlns="http://www.w3.org/2000/svg">
<g filter="url(#filter0_d_683_10189)">
<path d="M24.8648 9.57826L25.1626 9.35511L25.0344 9.00577C24.9487 8.77254 24.9 8.5214 24.9 8.25C24.9 7.17407 25.5807 6.5 26.2 6.5C26.8193 6.5 27.5 7.17407 27.5 8.25C27.5 9.32593 26.8193 10 26.2 10C26.159 10 26.1079 9.99193 26.0093 9.97221L25.5631 9.88297L25.4323 10.3188L22.828 19H9.17202L6.56766 10.3188L6.43691 9.88297L5.99069 9.97221C5.89208 9.99193 5.84095 10 5.8 10C5.18074 10 4.5 9.32593 4.5 8.25C4.5 7.17553 5.18332 6.5 5.80375 6.5C6.42301 6.5 7.10375 7.17407 7.10375 8.25C7.10375 8.51893 7.0522 8.77574 6.96831 9.00877L6.84318 9.35634L7.13866 9.57806L9.84958 11.6122C9.84962 11.6122 9.84965 11.6122 9.84968 11.6123C10.2652 11.9246 10.766 12.0017 11.2242 11.8518C11.6756 11.7041 12.0455 11.3513 12.2622 10.8767C12.2623 10.8766 12.2623 10.8765 12.2624 10.8764L15.3185 4.19229L15.4608 3.88105L15.2222 3.63574C14.917 3.32207 14.7 2.83078 14.7 2.25C14.7 1.17407 15.3807 0.5 16 0.5C16.6193 0.5 17.3 1.17407 17.3 2.25C17.3 2.83078 17.083 3.32207 16.7778 3.63574L16.5392 3.88105L16.6815 4.19229L19.7376 10.8764C19.954 11.3504 20.3227 11.7038 20.7742 11.8517C21.2326 12.0019 21.7328 11.9241 22.1492 11.6131L22.1498 11.6126L24.8648 9.57826ZM8.16668 21.5327C8.18502 21.5097 8.19795 21.5022 8.20326 21.5H23.7967C23.8021 21.5022 23.815 21.5097 23.8333 21.5327C23.8669 21.5746 23.9 21.6503 23.9 21.75V23.25C23.9 23.3497 23.8669 23.4254 23.8333 23.4673C23.815 23.4903 23.8021 23.4978 23.7967 23.5H8.20326C8.19795 23.4978 8.18502 23.4903 8.16668 23.4673C8.1331 23.4254 8.1 23.3497 8.1 23.25V21.75C8.1 21.6503 8.1331 21.5746 8.16668 21.5327ZM23.7941 21.4992C23.794 21.4992 23.7948 21.4992 23.7962 21.4998L23.7941 21.4992ZM23.7941 23.5008C23.794 23.5007 23.7947 23.5004 23.7962 23.5002L23.7941 23.5008ZM8.20595 23.5008C8.20594 23.5008 8.20521 23.5007 8.20382 23.5002L8.20595 23.5008ZM8.20382 21.4998C8.20521 21.4993 8.20594 21.4992 8.20595 21.4992L8.20382 21.4998Z" stroke="#215E97"/>
</g>
<defs>
<filter id="filter0_d_683_10189" x="0" y="0" width="32" height="32" filterUnits="userSpaceOnUse" color-interpolation-filters="sRGB">
<feFlood flood-opacity="0" result="BackgroundImageFix"/>
<feColorMatrix in="SourceAlpha" type="matrix" values="0 0 0 0 0 0 0 0 0 0 0 0 0 0 0 0 0 0 127 0" result="hardAlpha"/>
<feOffset dy="4"/>
<feGaussianBlur stdDeviation="2"/>
<feComposite in2="hardAlpha" operator="out"/>
<feColorMatrix type="matrix" values="0 0 0 0 0 0 0 0 0 0 0 0 0 0 0 0 0 0 0.25 0"/>
<feBlend mode="normal" in2="BackgroundImageFix" result="effect1_dropShadow_683_10189"/>
<feBlend mode="normal" in="SourceGraphic" in2="effect1_dropShadow_683_10189" result="shape"/>
</filter>
</defs>
</svg>
