<svg xmlns="http://www.w3.org/2000/svg" width="800" height="100" viewBox="0 0 800 100" role="img" aria-label="Letter header">
  <defs>
    <linearGradient id="hdr" x1="0%" y1="0%" x2="100%" y2="0%">
      <stop offset="0%" stop-color="#215e97"/>
      <stop offset="100%" stop-color="#1a4d7d"/>
    </linearGradient>
  </defs>
  <rect width="800" height="100" fill="url(#hdr)"/>
  <rect y="96" width="800" height="4" fill="#c97a2f"/>
  <g transform="translate(32 22)">
    <circle cx="28" cy="28" r="28" fill="#ffffff" fill-opacity="0.12"/>
    <path fill="#ffffff" d="M28 14c-5.3 0-9.5 3.8-9.5 8.6 0 2.8 1.4 5.2 3.5 6.7-4.4 1.7-7.5 5.6-7.9 10.2h1.9c.4-4 4-7.1 8.5-7.1s8.1 3.1 8.5 7.1h1.9c-.4-4.6-3.5-8.5-7.9-10.2 2.1-1.5 3.5-3.9 3.5-6.7 0-4.8-4.2-8.6-9.5-8.6zm0 3.8c2.6 0 4.7 2 4.7 4.5s-2.1 4.5-4.7 4.5-4.7-2-4.7-4.5 2.1-4.5 4.7-4.5z"/>
  </g>
  <text x="100" y="42" font-family="Segoe UI, Helvetica Neue, Arial, sans-serif" font-size="22" font-weight="700" fill="#ffffff">Membership Services</text>
  <text x="100" y="68" font-family="Segoe UI, Helvetica Neue, Arial, sans-serif" font-size="13" fill="#e2e8f0">Official correspondence</text>
  <text x="620" y="58" text-anchor="end" font-family="Segoe UI, Helvetica Neue, Arial, sans-serif" font-size="11" fill="#cbd5e1">Member communications</text>
</svg>
